<svg width="21" height="19" viewBox="0 0 21 19" fill="none" xmlns="http://www.w3.org/2000/svg">
<path d="M17.6283 7.01444C17.6094 3.95631 20.1636 2.48319 20.2771 2.4086C18.8203 0.320127 16.5688 0.0404199 15.7741 0.0217728C13.8821 -0.164698 12.0469 1.1406 11.082 1.1406C10.1171 1.1406 8.62238 0.0404199 7.01418 0.0777141C4.9519 0.115008 3.04098 1.28978 1.98145 3.09855C-0.194347 6.80932 1.43277 12.2729 3.51398 15.2751C4.55458 16.7482 5.78438 18.3892 7.37366 18.3332C8.94402 18.2773 9.51162 17.3449 11.4036 17.3449C13.2956 17.3449 13.8254 18.3332 15.4525 18.2959C17.1364 18.2773 18.177 16.8228 19.1987 15.3311C20.4095 13.6528 20.8825 11.9932 20.9015 11.9C20.8636 11.9 17.6472 10.6693 17.6094 7.01444H17.6283Z" fill="white"/>
</svg>
