<svg width="1348" height="178" viewBox="0 0 1348 178" fill="none" xmlns="http://www.w3.org/2000/svg">
<rect width="178" height="178" rx="25" fill="#FFE27D"/>
<path d="M61.2831 147.78C65.2831 147.78 67.8431 149.1 67.8431 151.3C67.8431 153.46 65.2831 154.78 61.2831 154.78C57.2831 154.78 54.7231 153.46 54.7231 151.3C54.7231 149.1 57.2831 147.78 61.2831 147.78ZM61.2831 149.78C58.7831 149.78 57.3631 150.3 57.3631 151.3C57.3631 152.28 58.7831 152.78 61.2831 152.78C63.7831 152.78 65.2031 152.28 65.2031 151.3C65.2031 150.3 63.7831 149.78 61.2831 149.78ZM54.9231 137.08H66.6431V139.18H54.9231V137.08ZM53.0431 144.52H69.7231V146.64H53.0431V144.52ZM59.2231 141.3H61.8631V145.06H59.2231V141.3ZM65.1031 137.08H67.7431V138.6C67.7431 140.06 67.7431 141.64 67.2431 143.56L64.6031 143.28C65.1031 141.38 65.1031 140.04 65.1031 138.6V137.08ZM83.3016 136.26H85.9816V149.52H83.3016V136.26ZM85.2216 141.42H88.4416V143.6H85.2216V141.42ZM78.1416 137.64H80.9816C80.9816 142.68 77.9016 146.14 72.3816 147.74L71.2616 145.62C75.8016 144.38 78.1416 141.9 78.1416 138.96V137.64ZM72.0616 137.64H79.5816V139.78H72.0616V137.64ZM74.0016 152.34H86.6016V154.46H74.0016V152.34ZM74.0016 148.18H76.6816V153.28H74.0016V148.18ZM103.18 136.26H105.7V154.78H103.18V136.26ZM100.7 143.38H103.78V145.52H100.7V143.38ZM99.04 136.58H101.5V153.9H99.04V136.58ZM90.32 148.42H91.62C93.9 148.42 95.8 148.34 98 147.94L98.2 150.1C95.96 150.54 94 150.6 91.62 150.6H90.32V148.42ZM90.32 138.4H97.16V140.54H92.96V149.46H90.32V138.4ZM116.478 140.04H121.518V142.18H116.478V140.04ZM116.478 145.78H121.518V147.92H116.478V145.78ZM113.278 137.54C116.038 137.54 118.058 140.1 118.058 144.14C118.058 148.22 116.038 150.78 113.278 150.78C110.498 150.78 108.498 148.22 108.498 144.14C108.498 140.1 110.498 137.54 113.278 137.54ZM113.278 139.96C111.938 139.96 111.018 141.42 111.018 144.14C111.018 146.9 111.938 148.38 113.278 148.38C114.638 148.38 115.538 146.9 115.538 144.14C115.538 141.42 114.638 139.96 113.278 139.96ZM121.098 136.24H123.738V154.82H121.098V136.24Z" fill="#333333"/>
<rect x="195" width="178" height="178" rx="25" fill="#7180F4"/>
<path d="M251.984 149.16H264.784V154.58H251.984V149.16ZM262.184 151.14H254.604V152.62H262.184V151.14ZM250.844 137.56H265.924V139.56H250.844V137.56ZM258.424 140.02C262.404 140.02 264.624 140.92 264.624 142.66C264.624 144.4 262.404 145.3 258.424 145.3C254.444 145.3 252.224 144.4 252.224 142.66C252.224 140.92 254.444 140.02 258.424 140.02ZM258.424 141.8C256.124 141.8 255.064 142.04 255.064 142.66C255.064 143.26 256.124 143.52 258.424 143.52C260.724 143.52 261.764 143.26 261.764 142.66C261.764 142.04 260.724 141.8 258.424 141.8ZM257.084 136.12H259.744V138.98H257.084V136.12ZM250.044 146.18H266.784V148.22H250.044V146.18ZM257.084 144.66H259.744V147.26H257.084V144.66ZM272.743 153.26C271.923 153.26 271.189 153.06 270.543 152.66C269.896 152.26 269.383 151.733 269.003 151.08C268.629 150.42 268.443 149.71 268.443 148.95C268.443 148.523 268.483 148.15 268.563 147.83C268.643 147.51 268.779 147.2 268.973 146.9C269.166 146.593 269.429 146.26 269.763 145.9C270.096 145.533 270.516 145.097 271.023 144.59C270.749 144.31 270.516 144.06 270.323 143.84C270.136 143.62 269.986 143.407 269.873 143.2C269.759 142.987 269.676 142.77 269.623 142.55C269.576 142.33 269.553 142.08 269.553 141.8C269.553 141.187 269.699 140.64 269.993 140.16C270.286 139.673 270.676 139.29 271.163 139.01C271.649 138.73 272.176 138.59 272.743 138.59C273.336 138.59 273.873 138.733 274.353 139.02C274.839 139.3 275.226 139.683 275.513 140.17C275.806 140.657 275.953 141.2 275.953 141.8C275.953 142.087 275.926 142.343 275.873 142.57C275.826 142.797 275.743 143.013 275.623 143.22C275.509 143.427 275.356 143.64 275.163 143.86C274.976 144.08 274.746 144.323 274.473 144.59L277.113 147.23L279.633 144.7V148.15L278.823 148.96L281.153 151.28L279.423 153L277.113 150.69C276.599 151.203 276.159 151.627 275.793 151.96C275.426 152.293 275.089 152.557 274.783 152.75C274.483 152.937 274.173 153.067 273.853 153.14C273.539 153.22 273.169 153.26 272.743 153.26ZM272.743 150.82C272.976 150.82 273.179 150.793 273.353 150.74C273.526 150.68 273.699 150.58 273.873 150.44C274.046 150.293 274.249 150.1 274.483 149.86C274.723 149.62 275.023 149.32 275.383 148.96L272.743 146.32C272.369 146.7 272.059 147.01 271.813 147.25C271.573 147.49 271.386 147.697 271.253 147.87C271.119 148.037 271.023 148.203 270.963 148.37C270.909 148.537 270.883 148.733 270.883 148.96C270.883 149.32 270.969 149.64 271.143 149.92C271.323 150.2 271.553 150.42 271.833 150.58C272.119 150.74 272.423 150.82 272.743 150.82ZM272.743 143.22C273.043 142.933 273.266 142.717 273.413 142.57C273.566 142.423 273.669 142.297 273.723 142.19C273.783 142.077 273.813 141.93 273.813 141.75C273.813 141.417 273.699 141.157 273.473 140.97C273.246 140.783 273.003 140.69 272.743 140.69C272.463 140.69 272.216 140.793 272.003 141C271.796 141.207 271.693 141.457 271.693 141.75C271.693 141.93 271.723 142.08 271.783 142.2C271.849 142.32 271.959 142.453 272.113 142.6C272.266 142.747 272.476 142.953 272.743 143.22ZM295.479 136.26H298.159V145.76H295.479V136.26ZM285.799 146.56H298.159V151.5H288.439V153.46H285.839V149.62H295.519V148.58H285.799V146.56ZM285.839 152.64H298.619V154.66H285.839V152.64ZM283.699 137.04H286.319V139.14H290.059V137.04H292.699V145.2H283.699V137.04ZM286.319 141.14V143.12H290.059V141.14H286.319ZM313.037 136.24H315.677V154.82H313.037V136.24ZM315.077 143.24H318.357V145.44H315.077V143.24ZM301.917 148.34H303.477C306.617 148.34 309.057 148.24 311.777 147.76L312.037 149.9C309.237 150.4 306.697 150.52 303.477 150.52H301.917V148.34ZM301.897 137.82H310.417V145H304.557V149.16H301.917V142.88H307.777V139.94H301.897V137.82Z" fill="#333333"/>
<rect x="390" width="178" height="178" rx="25" fill="#F76AAB"/>
<path d="M445.063 137.04H456.803V139.16H445.063V137.04ZM443.023 143.44H459.783V145.56H443.023V143.44ZM450.043 144.94H452.703V148.82H450.043V144.94ZM455.203 137.04H457.823V138.52C457.823 140.12 457.823 141.98 457.243 144.42L454.623 144.16C455.203 141.78 455.203 140.08 455.203 138.52V137.04ZM444.703 148.16H457.843V154.78H455.183V150.26H444.703V148.16ZM474.722 136.26H477.262V154.78H474.722V136.26ZM472.302 143.4H475.382V145.52H472.302V143.4ZM470.582 136.58H473.062V153.9H470.582V136.58ZM462.122 138.3H464.782V149H462.122V138.3ZM462.122 148H463.402C465.182 148 467.262 147.9 469.562 147.46L469.822 149.74C467.402 150.18 465.282 150.28 463.402 150.28H462.122V148ZM486.82 136.5H489.1V137.06C489.1 140.38 486.34 143.1 481.58 143.76L480.62 141.7C484.78 141.18 486.82 139.02 486.82 137.06V136.5ZM487.26 136.5H489.54V137.06C489.54 139 491.58 141.18 495.72 141.7L494.76 143.76C490 143.1 487.26 140.36 487.26 137.06V136.5ZM486.82 146.36H489.46V149.18H486.82V146.36ZM479.8 144.72H496.54V146.82H479.8V144.72ZM481.66 148.6H494.52V154.78H491.86V150.68H481.66V148.6ZM510.118 136.26H512.778V147.36H510.118V136.26ZM512.038 140.76H515.238V142.94H512.038V140.76ZM500.418 148.18H512.778V154.78H510.118V150.3H500.418V148.18ZM498.738 137.42H501.378V139.86H504.998V137.42H507.638V146.42H498.738V137.42ZM501.378 141.9V144.34H504.998V141.9H501.378Z" fill="#333333"/>
<rect x="585" width="178" height="178" rx="25" fill="#7EC4FB"/>
<path d="M637.983 139.04H646.843V141.16H637.983V139.04ZM642.443 141.98C644.803 141.98 646.503 143.8 646.503 146.4C646.503 148.98 644.803 150.8 642.443 150.8C640.103 150.8 638.383 148.98 638.383 146.4C638.383 143.8 640.103 141.98 642.443 141.98ZM642.443 144.2C641.443 144.2 640.743 145 640.743 146.4C640.743 147.8 641.443 148.58 642.443 148.58C643.443 148.58 644.163 147.8 644.163 146.4C644.163 145 643.443 144.2 642.443 144.2ZM651.383 136.26H653.923V154.78H651.383V136.26ZM649.163 143.78H652.223V145.92H649.163V143.78ZM647.503 136.6H649.983V154H647.503V136.6ZM641.143 136.76H643.763V140.38H641.143V136.76ZM661.002 145.52H663.682V149.42H661.002V145.52ZM662.362 137.34C665.282 137.34 667.462 139.24 667.462 141.9C667.462 144.56 665.282 146.46 662.362 146.46C659.462 146.46 657.242 144.56 657.242 141.9C657.242 139.24 659.462 137.34 662.362 137.34ZM662.362 139.62C660.942 139.62 659.862 140.44 659.862 141.9C659.862 143.34 660.942 144.2 662.362 144.2C663.782 144.2 664.862 143.34 664.862 141.9C664.862 140.44 663.782 139.62 662.362 139.62ZM669.202 136.24H671.862V154.82H669.202V136.24ZM656.802 151.1L656.482 148.96C659.742 148.96 664.282 148.92 668.182 148.34L668.382 150.26C664.362 151.06 660.002 151.1 656.802 151.1ZM681.82 136.5H684.1V137.06C684.1 140.38 681.34 143.1 676.58 143.76L675.62 141.7C679.78 141.18 681.82 139.02 681.82 137.06V136.5ZM682.26 136.5H684.54V137.06C684.54 139 686.58 141.18 690.72 141.7L689.76 143.76C685 143.1 682.26 140.36 682.26 137.06V136.5ZM681.82 146.36H684.46V149.18H681.82V146.36ZM674.8 144.72H691.54V146.82H674.8V144.72ZM676.66 148.6H689.52V154.78H686.86V150.68H676.66V148.6ZM693.218 150.44H709.978V152.62H693.218V150.44ZM700.178 146.32H702.818V151.02H700.178V146.32ZM700.078 137.28H702.398V138.62C702.398 142.56 699.538 146.04 694.698 146.92L693.598 144.7C697.818 144.02 700.078 141.18 700.078 138.62V137.28ZM700.598 137.28H702.918V138.62C702.918 141.24 705.178 144.02 709.418 144.7L708.318 146.92C703.458 146.02 700.598 142.62 700.598 138.62V137.28Z" fill="#333333"/>
<rect x="780" width="178" height="178" rx="25" fill="#5CD8DF"/>
<path d="M837.303 137.38C839.743 137.38 841.543 139.24 841.543 141.92C841.543 144.58 839.743 146.42 837.303 146.42C834.843 146.42 833.063 144.58 833.063 141.92C833.063 139.24 834.843 137.38 837.303 137.38ZM837.303 139.62C836.223 139.62 835.463 140.46 835.463 141.92C835.463 143.36 836.223 144.22 837.303 144.22C838.363 144.22 839.143 143.36 839.143 141.92C839.143 140.46 838.363 139.62 837.303 139.62ZM846.263 136.28H848.783V147.32H846.263V136.28ZM844.043 140.74H846.983V142.9H844.043V140.74ZM842.383 136.6H844.863V147.24H842.383V136.6ZM836.063 148.14H848.783V154.78H846.143V150.26H836.063V148.14ZM852.402 148.44H854.002C857.242 148.44 859.722 148.38 862.582 147.96L862.822 150.06C859.922 150.52 857.302 150.6 854.002 150.6H852.402V148.44ZM852.402 137.8H861.782V139.96H855.042V149.14H852.402V137.8ZM854.442 142.94H861.002V145.02H854.442V142.94ZM864.162 136.26H866.842V154.78H864.162V136.26ZM882.5 136.24H885.18V154.82H882.5V136.24ZM870.72 137.72H873.36V142.22H877.18V137.72H879.82V150.5H870.72V137.72ZM873.36 144.28V148.36H877.18V144.28H873.36ZM889.198 148.44H890.798C894.038 148.44 896.518 148.38 899.378 147.96L899.618 150.06C896.718 150.52 894.098 150.6 890.798 150.6H889.198V148.44ZM889.198 137.8H898.578V139.96H891.838V149.14H889.198V137.8ZM891.238 142.94H897.798V145.02H891.238V142.94ZM900.958 136.26H903.638V154.78H900.958V136.26Z" fill="#333333"/>
<rect x="975" width="178" height="178" rx="25" fill="#CC75D3"/>
<path d="M1058.82 136.26H1061.48V148H1058.82V136.26ZM1060.74 140.98H1063.94V143.16H1060.74V140.98ZM1055.46 148.2C1059.28 148.2 1061.68 149.42 1061.68 151.5C1061.68 153.56 1059.28 154.78 1055.46 154.78C1051.64 154.78 1049.24 153.56 1049.24 151.5C1049.24 149.42 1051.64 148.2 1055.46 148.2ZM1055.46 150.2C1053.12 150.2 1051.88 150.62 1051.88 151.5C1051.88 152.38 1053.12 152.8 1055.46 152.8C1057.8 152.8 1059.04 152.38 1059.04 151.5C1059.04 150.62 1057.8 150.2 1055.46 150.2ZM1046.9 138.02H1057.8V140.08H1046.9V138.02ZM1052.36 140.7C1055.04 140.7 1056.9 142.04 1056.9 144.02C1056.9 146.02 1055.04 147.34 1052.36 147.34C1049.66 147.34 1047.8 146.02 1047.8 144.02C1047.8 142.04 1049.66 140.7 1052.36 140.7ZM1052.36 142.64C1051.16 142.64 1050.36 143.12 1050.36 144.02C1050.36 144.92 1051.16 145.4 1052.36 145.4C1053.54 145.4 1054.36 144.92 1054.36 144.02C1054.36 143.12 1053.54 142.64 1052.36 142.64ZM1051.02 136.14H1053.68V139.12H1051.02V136.14ZM1073.58 147.78C1077.58 147.78 1080.14 149.1 1080.14 151.3C1080.14 153.46 1077.58 154.78 1073.58 154.78C1069.58 154.78 1067.02 153.46 1067.02 151.3C1067.02 149.1 1069.58 147.78 1073.58 147.78ZM1073.58 149.78C1071.08 149.78 1069.66 150.3 1069.66 151.3C1069.66 152.28 1071.08 152.78 1073.58 152.78C1076.08 152.78 1077.5 152.28 1077.5 151.3C1077.5 150.3 1076.08 149.78 1073.58 149.78ZM1067.22 137.08H1078.94V139.18H1067.22V137.08ZM1065.34 144.52H1082.02V146.64H1065.34V144.52ZM1071.52 141.3H1074.16V145.06H1071.52V141.3ZM1077.4 137.08H1080.04V138.6C1080.04 140.06 1080.04 141.64 1079.54 143.56L1076.9 143.28C1077.4 141.38 1077.4 140.04 1077.4 138.6V137.08Z" fill="#333333"/>
<rect x="1170" width="178" height="178" rx="25" fill="#FF5E68"/>
<path d="M1232.94 145.52H1234.22C1236.86 145.52 1238.56 145.48 1240.6 145.12L1240.84 147.18C1238.76 147.58 1236.94 147.62 1234.22 147.62H1232.94V145.52ZM1232.92 137.64H1239.44V143.56H1235.52V146.48H1232.94V141.62H1236.86V139.72H1232.92V137.64ZM1240.08 140.88H1243.58V143.02H1240.08V140.88ZM1245.46 136.26H1247.98V150.18H1245.46V136.26ZM1241.74 136.6H1244.22V149.76H1241.74V136.6ZM1235.52 152.34H1248.46V154.46H1235.52V152.34ZM1235.52 148.84H1238.18V153.92H1235.52V148.84ZM1263.5 136.24H1266.14V154.82H1263.5V136.24ZM1260.32 142.76H1263.8V144.92H1260.32V142.76ZM1251.44 148.48H1252.92C1255.98 148.48 1258.26 148.44 1260.88 148.02L1261.12 150.14C1258.44 150.56 1256.04 150.64 1252.92 150.64H1251.44V148.48ZM1251.44 137.8H1260.02V139.96H1254.08V149.16H1251.44V137.8ZM1253.48 142.96H1259.38V145.04H1253.48V142.96ZM1276 138.04H1278.6C1278.6 143.76 1277.24 148.52 1270.34 152.02L1268.92 150C1274.68 147.1 1276 143.56 1276 138.36V138.04ZM1270.06 138.04H1277.58V140.14H1270.06V138.04ZM1276.06 142.58V144.62L1269.42 145.26L1269.1 142.98L1276.06 142.58ZM1280.84 136.24H1283.52V154.76H1280.84V136.24ZM1282.82 143.32H1286.08V145.5H1282.82V143.32Z" fill="#333333"/>
</svg>
