<svg width="26" height="25" viewBox="0 0 26 25" fill="none" xmlns="http://www.w3.org/2000/svg">
<g clip-path="url(#clip0_32_941)">
<circle cx="13.4297" cy="12.5" r="12.5" fill="white"/>
<rect x="8.07324" y="5.35706" width="10.119" height="10.119" fill="#202020"/>
<path d="M8.07324 16.0713H18.1923L15.2161 19.6427H11.0494L8.07324 16.0713Z" fill="#202020"/>
<path d="M11.8446 20.3869L14.4221 20.3869L13.1334 22.619L11.8446 20.3869Z" fill="#202020"/>
<path d="M11.1046 12.7619V7.469H12.1832L13.7189 10.2904L14.2546 11.4333H14.2903C14.2617 11.1571 14.2308 10.8547 14.1974 10.5261C14.1641 10.1976 14.1474 9.88328 14.1474 9.58328V7.469H15.1474V12.7619H14.0689L12.5474 9.93328L12.0117 8.79757H11.976C11.9998 9.08328 12.0284 9.38567 12.0617 9.70471C12.0951 10.0238 12.1117 10.3357 12.1117 10.6404V12.7619H11.1046Z" fill="white"/>
</g>
<defs>
<clipPath id="clip0_32_941">
<rect width="25" height="25" fill="white" transform="translate(0.928711)"/>
</clipPath>
</defs>
</svg>
