<svg width="1193" height="169" viewBox="0 0 1193 169" fill="none" xmlns="http://www.w3.org/2000/svg">
<path d="M79.5189 168.784C63.1243 168.784 49.0496 165.304 37.2949 158.344C25.5402 151.229 16.4922 141.408 10.1509 128.88C3.80958 116.197 0.638914 101.581 0.638914 85.032C0.638914 68.4827 3.80958 53.8667 10.1509 41.184C16.4922 28.5013 25.5402 18.6027 37.2949 11.488C49.0496 4.37333 63.1243 0.815997 79.5189 0.815997C99.0069 0.815997 114.938 5.68799 127.311 15.432C139.839 25.0213 147.65 38.5547 150.743 56.032H118.031C116.02 47.216 111.69 40.3333 105.039 35.384C98.5429 30.28 89.8816 27.728 79.0549 27.728C64.0523 27.728 52.2976 32.832 43.7909 43.04C35.2842 53.248 31.0309 67.2453 31.0309 85.032C31.0309 102.819 35.2842 116.816 43.7909 127.024C52.2976 137.077 64.0523 142.104 79.0549 142.104C89.8816 142.104 98.5429 139.784 105.039 135.144C111.69 130.349 116.02 123.776 118.031 115.424H150.743C147.65 132.128 139.839 145.197 127.311 154.632C114.938 164.067 99.0069 168.784 79.5189 168.784ZM271.686 168.784C255.446 168.784 241.216 165.227 228.998 158.112C216.934 150.997 207.422 141.176 200.462 128.648C193.656 115.965 190.254 101.349 190.254 84.8C190.254 68.2507 193.656 53.712 200.462 41.184C207.422 28.5013 216.934 18.6027 228.998 11.488C241.216 4.37333 255.446 0.815997 271.686 0.815997C287.771 0.815997 301.923 4.37333 314.142 11.488C326.36 18.6027 335.872 28.5013 342.678 41.184C349.483 53.712 352.886 68.2507 352.886 84.8C352.886 101.349 349.483 115.965 342.678 128.648C335.872 141.176 326.36 150.997 314.142 158.112C301.923 165.227 287.771 168.784 271.686 168.784ZM271.686 142.104C287.152 142.104 299.448 137 308.574 126.792C317.854 116.584 322.494 102.587 322.494 84.8C322.494 67.0133 317.854 53.016 308.574 42.808C299.448 32.6 287.152 27.496 271.686 27.496C256.219 27.496 243.846 32.6 234.566 42.808C225.286 53.016 220.646 67.0133 220.646 84.8C220.646 102.587 225.286 116.584 234.566 126.792C243.846 137 256.219 142.104 271.686 142.104ZM397.665 166V3.59999H427.361L503.689 117.976V3.59999H533.385V166H503.689L427.361 51.856V166H397.665ZM621.244 166V27.496H573.916V3.59999H698.5V27.496H650.94V166H621.244ZM739.059 166V3.59999H845.083V27.496H768.755V72.04H838.123V95.24H768.755V142.104H845.083V166H739.059ZM891.744 166V3.59999H921.44L997.768 117.976V3.59999H1027.46V166H997.768L921.44 51.856V166H891.744ZM1115.32 166V27.496H1067.99V3.59999H1192.58V27.496H1145.02V166H1115.32Z" fill="white"/>
</svg>
