<svg width="26" height="25" viewBox="0 0 26 25" fill="none" xmlns="http://www.w3.org/2000/svg">
<g clip-path="url(#clip0_32_938)">
<circle cx="13.4292" cy="12.5001" r="12.5" fill="white"/>
<path d="M13.3969 9.12549C11.5484 9.12549 10.0574 10.6165 10.0574 12.465C10.0574 14.3135 11.5484 15.8045 13.3969 15.8045C15.2453 15.8045 16.7363 14.3135 16.7363 12.465C16.7363 10.6165 15.2453 9.12549 13.3969 9.12549ZM13.3969 14.6361C12.2023 14.6361 11.2257 13.6624 11.2257 12.465C11.2257 11.2675 12.1994 10.2939 13.3969 10.2939C14.5943 10.2939 15.568 11.2675 15.568 12.465C15.568 13.6624 14.5914 14.6361 13.3969 14.6361ZM17.6519 8.98889C17.6519 9.42195 17.3031 9.76782 16.873 9.76782C16.4399 9.76782 16.094 9.41904 16.094 8.98889C16.094 8.55874 16.4428 8.20997 16.873 8.20997C17.3031 8.20997 17.6519 8.55874 17.6519 8.98889ZM19.8637 9.77944C19.8143 8.73603 19.5759 7.81178 18.8115 7.0503C18.0501 6.28881 17.1258 6.05048 16.0824 5.99817C15.007 5.93713 11.7838 5.93713 10.7084 5.99817C9.66789 6.04758 8.74365 6.28591 7.97925 7.04739C7.21486 7.80888 6.97944 8.73313 6.92712 9.77654C6.86609 10.8519 6.86609 14.0752 6.92712 15.1505C6.97653 16.1939 7.21486 17.1182 7.97925 17.8797C8.74365 18.6412 9.66499 18.8795 10.7084 18.9318C11.7838 18.9928 15.007 18.9928 16.0824 18.9318C17.1258 18.8824 18.0501 18.6441 18.8115 17.8797C19.573 17.1182 19.8114 16.1939 19.8637 15.1505C19.9247 14.0752 19.9247 10.8548 19.8637 9.77944ZM18.4744 16.3044C18.2477 16.8741 17.8088 17.3129 17.2363 17.5425C16.3789 17.8826 14.3443 17.8041 13.3969 17.8041C12.4494 17.8041 10.4119 17.8797 9.55745 17.5425C8.98779 17.3158 8.54892 16.877 8.31931 16.3044C7.97925 15.447 8.05773 13.4125 8.05773 12.465C8.05773 11.5175 7.98216 9.48008 8.31931 8.62559C8.54601 8.05593 8.98488 7.61705 9.55745 7.38745C10.4148 7.04739 12.4494 7.12587 13.3969 7.12587C14.3443 7.12587 16.3818 7.0503 17.2363 7.38745C17.8059 7.61415 18.2448 8.05302 18.4744 8.62559C18.8144 9.48299 18.736 11.5175 18.736 12.465C18.736 13.4125 18.8144 15.4499 18.4744 16.3044Z" fill="#202020"/>
</g>
<defs>
<clipPath id="clip0_32_938">
<rect width="25" height="25" fill="white" transform="translate(0.928711)"/>
</clipPath>
</defs>
</svg>
