<svg width="1130" height="166" viewBox="0 0 1130 166" fill="none" xmlns="http://www.w3.org/2000/svg">
<path d="M0.943664 163V0.599989H61.0317C74.0237 0.599989 84.773 2.76532 93.2797 7.09599C101.786 11.4267 108.128 17.3813 112.304 24.96C116.48 32.5387 118.568 41.0453 118.568 50.48C118.568 59.4507 116.557 67.7253 112.536 75.304C108.514 82.728 102.25 88.76 93.7437 93.4C85.237 97.8853 74.333 100.128 61.0317 100.128H30.6397V163H0.943664ZM30.6397 76H59.1757C69.5383 76 76.9623 73.7573 81.4477 69.272C86.0877 64.632 88.4077 58.368 88.4077 50.48C88.4077 42.4373 86.0877 36.1733 81.4477 31.688C76.9623 27.048 69.5383 24.728 59.1757 24.728H30.6397V76ZM160.426 163V0.599989H220.05C233.042 0.599989 243.714 2.84266 252.066 7.328C260.572 11.6587 266.914 17.6133 271.09 25.192C275.266 32.616 277.354 40.8907 277.354 50.016C277.354 59.9147 274.724 68.9627 269.466 77.16C264.362 85.3573 256.319 91.312 245.338 95.024L278.978 163H244.874L214.714 98.968H190.122V163H160.426ZM190.122 77.16H218.194C228.092 77.16 235.362 74.7627 240.002 69.968C244.642 65.1733 246.962 58.832 246.962 50.944C246.962 43.2107 244.642 37.024 240.002 32.384C235.516 27.744 228.17 25.424 217.962 25.424H190.122V77.16ZM323.532 163V0.599989H429.556V24.496H353.228V69.04H422.596V92.24H353.228V139.104H429.556V163H323.532ZM476.217 163V0.599989H511.481L563.217 103.608L614.257 0.599989H649.521V163H619.825V50.944L574.585 139.8H551.153L505.913 50.944V163H476.217ZM699.59 163V0.599989H729.286V163H699.59ZM841.962 165.784C830.052 165.784 819.303 163.464 809.714 158.824C800.124 154.029 792.468 146.837 786.746 137.248C781.178 127.659 778.394 115.517 778.394 100.824V0.599989H808.09V101.056C808.09 113.739 811.106 123.173 817.138 129.36C823.324 135.547 831.831 138.64 842.658 138.64C853.33 138.64 861.759 135.547 867.946 129.36C874.132 123.173 877.226 113.739 877.226 101.056V0.599989H906.922V100.824C906.922 115.517 903.983 127.659 898.106 137.248C892.228 146.837 884.34 154.029 874.442 158.824C864.698 163.464 853.871 165.784 841.962 165.784ZM955.796 163V0.599989H991.06L1042.8 103.608L1093.84 0.599989H1129.1V163H1099.4V50.944L1054.16 139.8H1030.73L985.492 50.944V163H955.796Z" fill="white"/>
</svg>
