<svg width="600" height="163" viewBox="0 0 600 163" fill="none" xmlns="http://www.w3.org/2000/svg">
<path d="M0.873505 163V0.599989H60.4975C73.4895 0.599989 84.1615 2.84266 92.5135 7.328C101.02 11.6587 107.362 17.6133 111.538 25.192C115.714 32.616 117.802 40.8907 117.802 50.016C117.802 59.9147 115.172 68.9627 109.914 77.16C104.81 85.3573 96.7668 91.312 85.7855 95.024L119.426 163H85.3215L55.1615 98.968H30.5695V163H0.873505ZM30.5695 77.16H58.6415C68.5402 77.16 75.8095 74.7627 80.4495 69.968C85.0895 65.1733 87.4095 58.832 87.4095 50.944C87.4095 43.2107 85.0895 37.024 80.4495 32.384C75.9642 27.744 68.6175 25.424 58.4095 25.424H30.5695V77.16ZM163.98 163V0.599989H270.004V24.496H193.676V69.04H263.044V92.24H193.676V139.104H270.004V163H163.98ZM306.225 163L365.617 0.599989H399.025L458.417 163H426.865L413.873 125.416H350.537L337.313 163H306.225ZM358.657 102.216H405.753L382.089 34.704L358.657 102.216ZM497.897 163V0.599989H527.593V139.8H599.513V163H497.897Z" fill="white"/>
</svg>
