<svg width="942" height="163" viewBox="0 0 942 163" fill="none" xmlns="http://www.w3.org/2000/svg">
<path d="M0.149444 163V0.599989H59.7734C72.7654 0.599989 83.4374 2.84266 91.7895 7.328C100.296 11.6587 106.637 17.6133 110.813 25.192C114.989 32.616 117.077 40.8907 117.077 50.016C117.077 59.9147 114.448 68.9627 109.189 77.16C104.085 85.3573 96.0428 91.312 85.0614 95.024L118.701 163H84.5974L54.4374 98.968H29.8454V163H0.149444ZM29.8454 77.16H57.9174C67.8161 77.16 75.0854 74.7627 79.7254 69.968C84.3654 65.1733 86.6854 58.832 86.6854 50.944C86.6854 43.2107 84.3654 37.024 79.7254 32.384C75.2401 27.744 67.8934 25.424 57.6854 25.424H29.8454V77.16ZM163.256 163V0.599989H269.28V24.496H192.952V69.04H262.32V92.24H192.952V139.104H269.28V163H163.256ZM363.037 163L303.645 0.599989H335.429L381.365 132.608L427.533 0.599989H458.853L399.461 163H363.037ZM496.72 163V0.599989H526.416V163H496.72ZM576.452 163V0.599989H682.476V24.496H606.148V69.04H675.516V92.24H606.148V139.104H682.476V163H576.452ZM762.081 163L719.161 0.599989H750.945L780.177 129.824L814.513 0.599989H847.225L880.633 129.824L909.865 0.599989H941.881L897.801 163H862.537L830.289 42.592L797.113 163H762.081Z" fill="white"/>
</svg>
