<svg width="1030" height="169" viewBox="0 0 1030 169" fill="none" xmlns="http://www.w3.org/2000/svg">
<path d="M61.5401 168.784C49.6308 168.784 39.1134 166.773 29.9881 162.752C20.8628 158.576 13.6708 152.699 8.4121 145.12C3.15344 137.387 0.446768 128.029 0.292101 117.048H31.6121C31.9214 124.627 34.6281 131.045 39.7321 136.304C44.9908 141.408 52.1828 143.96 61.3081 143.96C69.1961 143.96 75.4601 142.104 80.1001 138.392C84.7401 134.525 87.0601 129.421 87.0601 123.08C87.0601 116.429 84.9721 111.248 80.7961 107.536C76.7748 103.824 71.3614 100.808 64.5561 98.488C57.7508 96.168 50.4814 93.6933 42.7481 91.064C30.2201 86.7333 20.6308 81.1653 13.9801 74.36C7.4841 67.5547 4.2361 58.5067 4.2361 47.216C4.08144 37.6267 6.3241 29.4293 10.9641 22.624C15.7588 15.664 22.2548 10.328 30.4521 6.61599C38.6494 2.74933 48.0841 0.815997 58.7561 0.815997C69.5828 0.815997 79.0948 2.74933 87.2921 6.61599C95.6441 10.4827 102.14 15.896 106.78 22.856C111.575 29.816 114.127 38.0907 114.436 47.68H82.6521C82.4974 41.9573 80.2548 36.9307 75.9241 32.6C71.7481 28.1147 65.8708 25.872 58.2921 25.872C51.7961 25.7173 46.3054 27.3413 41.8201 30.744C37.4894 33.992 35.3241 38.7867 35.3241 45.128C35.3241 50.5413 37.0254 54.872 40.4281 58.12C43.8308 61.2133 48.4708 63.8427 54.3481 66.008C60.2254 68.1733 66.9534 70.4933 74.5321 72.968C82.5748 75.752 89.9214 79 96.5721 82.712C103.223 86.424 108.559 91.3733 112.58 97.56C116.601 103.592 118.612 111.403 118.612 120.992C118.612 129.499 116.447 137.387 112.116 144.656C107.785 151.925 101.367 157.803 92.8601 162.288C84.3534 166.619 73.9134 168.784 61.5401 168.784ZM163.082 166V3.59999H269.106V27.496H192.778V72.04H262.146V95.24H192.778V142.104H269.106V166H163.082ZM315.767 166V3.59999H375.391C388.383 3.59999 399.055 5.84266 407.407 10.328C415.913 14.6587 422.255 20.6133 426.431 28.192C430.607 35.616 432.695 43.8907 432.695 53.016C432.695 62.9147 430.065 71.9627 424.807 80.16C419.703 88.3573 411.66 94.312 400.679 98.024L434.319 166H400.215L370.055 101.968H345.463V166H315.767ZM345.463 80.16H373.535C383.433 80.16 390.703 77.7627 395.343 72.968C399.983 68.1733 402.303 61.832 402.303 53.944C402.303 46.2107 399.983 40.024 395.343 35.384C390.857 30.744 383.511 28.424 373.303 28.424H345.463V80.16ZM520.306 166L460.914 3.59999H492.698L538.634 135.608L584.802 3.59999H616.122L556.73 166H520.306ZM653.988 166V3.59999H683.684V166H653.988ZM807.264 168.784C790.87 168.784 776.795 165.304 765.04 158.344C753.286 151.229 744.238 141.408 737.896 128.88C731.555 116.197 728.384 101.581 728.384 85.032C728.384 68.4827 731.555 53.8667 737.896 41.184C744.238 28.5013 753.286 18.6027 765.04 11.488C776.795 4.37333 790.87 0.815997 807.264 0.815997C826.752 0.815997 842.683 5.68799 855.056 15.432C867.584 25.0213 875.395 38.5547 878.488 56.032H845.776C843.766 47.216 839.435 40.3333 832.784 35.384C826.288 30.28 817.627 27.728 806.8 27.728C791.798 27.728 780.043 32.832 771.536 43.04C763.03 53.248 758.776 67.2453 758.776 85.032C758.776 102.819 763.03 116.816 771.536 127.024C780.043 137.077 791.798 142.104 806.8 142.104C817.627 142.104 826.288 139.784 832.784 135.144C839.435 130.349 843.766 123.776 845.776 115.424H878.488C875.395 132.128 867.584 145.197 855.056 154.632C842.683 164.067 826.752 168.784 807.264 168.784ZM923.335 166V3.59999H1029.36V27.496H953.031V72.04H1022.4V95.24H953.031V142.104H1029.36V166H923.335Z" fill="#333333"/>
</svg>
