<svg width="776" height="169" viewBox="0 0 776 169" fill="none" xmlns="http://www.w3.org/2000/svg">
<path d="M47.9759 166V27.496H0.647911V3.59999H125.232V27.496H77.6719V166H47.9759ZM165.79 166V3.59999H225.414C238.406 3.59999 249.078 5.84266 257.43 10.328C265.937 14.6587 272.278 20.6133 276.454 28.192C280.63 35.616 282.718 43.8907 282.718 53.016C282.718 62.9147 280.089 71.9627 274.83 80.16C269.726 88.3573 261.684 94.312 250.702 98.024L284.342 166H250.238L220.078 101.968H195.486V166H165.79ZM195.486 80.16H223.558C233.457 80.16 240.726 77.7627 245.366 72.968C250.006 68.1733 252.326 61.832 252.326 53.944C252.326 46.2107 250.006 40.024 245.366 35.384C240.881 30.744 233.534 28.424 223.326 28.424H195.486V80.16ZM391.537 168.784C379.628 168.784 368.878 166.464 359.289 161.824C349.7 157.029 342.044 149.837 336.321 140.248C330.753 130.659 327.969 118.517 327.969 103.824V3.59999H357.665V104.056C357.665 116.739 360.681 126.173 366.713 132.36C372.9 138.547 381.406 141.64 392.233 141.64C402.905 141.64 411.334 138.547 417.521 132.36C423.708 126.173 426.801 116.739 426.801 104.056V3.59999H456.497V103.824C456.497 118.517 453.558 130.659 447.681 140.248C441.804 149.837 433.916 157.029 424.017 161.824C414.273 166.464 403.446 168.784 391.537 168.784ZM560.819 168.784C548.91 168.784 538.392 166.773 529.267 162.752C520.142 158.576 512.95 152.699 507.691 145.12C502.432 137.387 499.726 128.029 499.571 117.048H530.891C531.2 124.627 533.907 131.045 539.011 136.304C544.27 141.408 551.462 143.96 560.587 143.96C568.475 143.96 574.739 142.104 579.379 138.392C584.019 134.525 586.339 129.421 586.339 123.08C586.339 116.429 584.251 111.248 580.075 107.536C576.054 103.824 570.64 100.808 563.835 98.488C557.03 96.168 549.76 93.6933 542.027 91.064C529.499 86.7333 519.91 81.1653 513.259 74.36C506.763 67.5547 503.515 58.5067 503.515 47.216C503.36 37.6267 505.603 29.4293 510.243 22.624C515.038 15.664 521.534 10.328 529.731 6.61599C537.928 2.74933 547.363 0.815997 558.035 0.815997C568.862 0.815997 578.374 2.74933 586.571 6.61599C594.923 10.4827 601.419 15.896 606.059 22.856C610.854 29.816 613.406 38.0907 613.715 47.68H581.931C581.776 41.9573 579.534 36.9307 575.203 32.6C571.027 28.1147 565.15 25.872 557.571 25.872C551.075 25.7173 545.584 27.3413 541.099 30.744C536.768 33.992 534.603 38.7867 534.603 45.128C534.603 50.5413 536.304 54.872 539.707 58.12C543.11 61.2133 547.75 63.8427 553.627 66.008C559.504 68.1733 566.232 70.4933 573.811 72.968C581.854 75.752 589.2 79 595.851 82.712C602.502 86.424 607.838 91.3733 611.859 97.56C615.88 103.592 617.891 111.403 617.891 120.992C617.891 129.499 615.726 137.387 611.395 144.656C607.064 151.925 600.646 157.803 592.139 162.288C583.632 166.619 573.192 168.784 560.819 168.784ZM698.138 166V27.496H650.81V3.59999H775.394V27.496H727.834V166H698.138Z" fill="#F7323F"/>
</svg>
