<svg width="26" height="25" viewBox="0 0 26 25" fill="none" xmlns="http://www.w3.org/2000/svg">
<g clip-path="url(#clip0_32_932)">
<circle cx="13.4282" cy="12.5" r="12.5" fill="white"/>
<g clip-path="url(#clip1_32_932)">
<path d="M9.13395 8.44737C9.24621 8.43432 9.3599 8.45221 9.46273 8.49909C9.56556 8.54597 9.65363 8.62006 9.7174 8.71337C10.6326 10.052 11.7313 10.6088 12.9509 10.7353C13.0104 10.2139 13.1512 9.69861 13.4159 9.24474C13.8041 8.57882 14.4353 8.08899 15.3368 7.90793C16.5831 7.65744 17.5318 8.10883 18.0817 8.66128L19.1929 8.45357C19.3091 8.43178 19.4292 8.44371 19.5389 8.48795C19.6486 8.53218 19.7434 8.60688 19.812 8.70323C19.8807 8.79957 19.9203 8.91354 19.9263 9.03168C19.9323 9.14982 19.9043 9.26721 19.8458 9.36999L18.7793 11.2437C18.8766 13.9477 18.1251 15.8351 16.523 17.1354C15.6735 17.8248 14.457 18.2161 13.122 18.337C11.7766 18.4585 10.2556 18.3116 8.74394 17.8701C8.61478 17.8324 8.50138 17.7538 8.42085 17.646C8.34033 17.5382 8.29704 17.4072 8.29753 17.2726C8.29802 17.1381 8.34226 17.0073 8.42357 16.9002C8.50488 16.793 8.61885 16.7151 8.74828 16.6784C9.50845 16.462 10.0876 16.2754 10.6103 15.9486C9.86683 15.5543 9.31934 15.0384 8.93181 14.4506C8.39362 13.6334 8.19397 12.7219 8.15428 11.9004C8.1146 11.0788 8.23303 10.3174 8.35828 9.76867C8.42958 9.45555 8.51267 9.14181 8.62737 8.84171C8.66784 8.73593 8.7365 8.64325 8.82591 8.57373C8.91533 8.50421 9.02145 8.46051 9.13395 8.44737Z" fill="#333333"/>
</g>
</g>
<defs>
<clipPath id="clip0_32_932">
<rect width="25" height="25" fill="white" transform="translate(0.928711)"/>
</clipPath>
<clipPath id="clip1_32_932">
<rect width="14.881" height="14.881" fill="white" transform="translate(6.28516 5.35712)"/>
</clipPath>
</defs>
</svg>
