<svg width="26" height="25" viewBox="0 0 26 25" fill="none" xmlns="http://www.w3.org/2000/svg">
<g clip-path="url(#clip0_32_929)">
<circle cx="13.4287" cy="12.5" r="12.5" fill="white"/>
<path d="M20.1002 9.29033C19.9379 8.67933 19.4598 8.19813 18.8528 8.03482C17.7525 7.73808 13.3403 7.73808 13.3403 7.73808C13.3403 7.73808 8.92823 7.73808 7.82789 8.03482C7.22085 8.19815 6.74274 8.67933 6.58047 9.29033C6.28564 10.3978 6.28564 12.7084 6.28564 12.7084C6.28564 12.7084 6.28564 15.0191 6.58047 16.1265C6.74274 16.7375 7.22085 17.1987 7.82789 17.362C8.92823 17.6587 13.3403 17.6587 13.3403 17.6587C13.3403 17.6587 17.7524 17.6587 18.8528 17.362C19.4598 17.1987 19.9379 16.7375 20.1002 16.1265C20.395 15.0191 20.395 12.7084 20.395 12.7084C20.395 12.7084 20.395 10.3978 20.1002 9.29033ZM11.8973 14.8063V10.6105L15.585 12.7085L11.8973 14.8063Z" fill="#202020"/>
</g>
<defs>
<clipPath id="clip0_32_929">
<rect width="25" height="25" fill="white" transform="translate(0.928711)"/>
</clipPath>
</defs>
</svg>
